<?xml version='1.0' encoding='utf-8'?>
<svg xmlns="http://www.w3.org/2000/svg" width="91.44mm" height="91.44mm" version="1.1" style="shape-rendering:geometricPrecision; text-rendering:geometricPrecision; image-rendering:optimizeQuality; fill-rule:evenodd; clip-rule:evenodd" viewBox="0 0 9144 9144"> <defs> <style type="text/css">  .fil0 {fill:#F0F0F0} .fil1 {fill:#011627;fill-rule:nonzero}  </style> </defs> <g id="Layer_x0020_1"> <metadata id="CorelCorpID_0Corel-Layer"/> <g id="_2744503159104"> <polygon class="fil0" points="0,0 9144,0 9144,9144 0,9144 "/> <path class="fil1" d="M4572 2544c-560,0 -1067,227 -1434,594 -367,367 -594,874 -594,1434 0,560 227,1067 594,1434 367,367 874,594 1434,594 560,0 1067,-227 1434,-594 367,-367 594,-874 594,-1434 0,-560 -227,-1067 -594,-1434 -367,-367 -874,-594 -1434,-594zm-979 2539c-49,0 -88,-39 -88,-88 0,-49 39,-88 88,-88l44 0 0 -1288c0,-49 39,-88 88,-88 49,0 88,39 88,88l0 1288 45 0c49,0 88,39 88,88 0,49 -39,88 -88,88l-45 0 0 441c0,49 -39,88 -88,88 -49,0 -88,-39 -88,-88l0 -441 -44 0zm1693 -423c-49,0 -88,-39 -88,-88 0,-49 39,-88 88,-88l45 0 0 -865c0,-49 39,-88 88,-88 49,0 88,39 88,88l0 865 44 0c49,0 88,39 88,88 0,49 -39,88 -88,88l-44 0 0 864c0,49 -39,88 -88,88 -49,0 -88,-39 -88,-88l0 -864 -45 0zm-847 -423c-49,0 -88,-39 -88,-88 0,-49 39,-88 88,-88l45 0 0 -442c0,-49 39,-88 88,-88 49,0 88,39 88,88l0 442 45 0c49,0 88,39 88,88 0,49 -39,88 -88,88l-45 0 0 1287c0,49 -39,88 -88,88 -49,0 -88,-39 -88,-88l0 -1287 -45 0zm-1426 -1224c399,-399 950,-646 1559,-646 609,0 1160,247 1559,646 399,399 646,950 646,1559 0,609 -247,1160 -646,1559 -399,399 -950,646 -1559,646 -609,0 -1160,-247 -1559,-646 -399,-399 -646,-950 -646,-1559 0,-609 247,-1160 646,-1559z"/> </g> </g> </svg>